<svg xmlns="http://www.w3.org/2000/svg">
  <path d="M16 26c-.6 0-1.2-.3-1.8-1a.6.6 0 0 1 .9-.8c.3.4.7.6.9.6s.6-.2 1-.6a.6.6 0 0 1 .8.9c-.6.6-1.2.9-1.8.9zM0 16.4c0 1.6.1 3 .4 4.3S1 23 1.5 24c.5.9 1.1 1.7 1.9 2.4s1.5 1.3 2.4 1.7c.8.5 1.8.9 3 1.1l3.3.6a43.1 43.1 0 0 0 11.1-.6c1.1-.2 2.1-.6 3-1s1.7-1 2.4-1.8c.8-.7 1.4-1.5 1.9-2.4s.8-2 1-3.3c.4-1.3.5-2.7.5-4.3 0-2.8-.9-5.2-2.6-7.2l.3-1 .2-1.4-.1-2.2c-.1-.8-.3-1.7-.7-2.5H29c-.2-.1-.5-.1-.8 0l-1.4.3-2 .8c-.8.4-1.6 1-2.5 1.7a21 21 0 0 0-12.5 0 19.8 19.8 0 0 0-4.4-2.5A6.8 6.8 0 0 0 3 2H3A12.5 12.5 0 0 0 2 6.9l.2 1.5.3.9C.9 11.2 0 13.6 0 16.4zM4.3 20c0-1.8.6-3.5 2-5 .4-.4.8-.7 1.4-1s1-.3 1.8-.4 1.3 0 1.9 0l2.3.2a54.9 54.9 0 0 0 8.8-.2c.7 0 1.3.2 1.8.4l1.4 1c1.3 1.5 2 3.2 2 5 0 1 0 2-.3 2.8s-.5 1.6-.9 2.1c-.3.6-.8 1-1.4 1.4a8.5 8.5 0 0 1-4 1.4 25.8 25.8 0 0 1-5.1.3 79.3 79.3 0 0 1-5.1-.3c-1 0-1.7-.2-2.3-.5L7 26.3c-.6-.4-1.1-.8-1.5-1.4-.3-.5-.6-1.2-.8-2s-.3-1.9-.3-3zM8 19c0-1.7.9-3 2-3s2 1.3 2 3-.9 3-2 3-2-1.3-2-3zm12 0c0-1.7.9-3 2-3s2 1.3 2 3-.9 3-2 3-2-1.3-2-3z"/>
</svg>

