<svg xmlns="http://www.w3.org/2000/svg" version="1.0" viewBox="0 0 750 975">
  <switch transform="matrix(1.42906 0 0 1.42906 3.91 27.5)">
    <g fill="#fff">
      <path d="M254.01 86.9c0-3.63 2.3-6.89 5.95-9.15 3.67 2.26 5.96 5.52 5.96 9.14 0 3.62-2.3 6.88-5.96 9.14-3.66-2.26-5.95-5.52-5.95-9.14zM264.9 105.75c-3.13-1.8-4.8-5.42-4.94-9.72 3.8-2.04 7.77-2.4 10.9-.59 3.13 1.81 4.81 5.43 4.94 9.73-3.8 2.03-7.76 2.4-10.9.58z"/>
      <path d="M255.02 105.75c3.14-1.8 4.81-5.42 4.94-9.72-3.8-2.04-7.76-2.4-10.9-.59-3.13 1.81-4.8 5.43-4.94 9.73 3.8 2.03 7.76 2.4 10.9.58zM295.84 90.05c.76-3.53 3.69-6.24 7.74-7.7 3.1 2.98 4.66 6.64 3.92 10.18-.77 3.54-3.67 6.25-7.73 7.7-3.11-2.97-4.68-6.64-3.93-10.18zM302.58 110.77c-2.69-2.42-3.57-6.3-2.8-10.54 4.12-1.2 8.08-.73 10.78 1.7 2.69 2.41 3.57 6.3 2.8 10.53-4.12 1.2-8.08.73-10.78-1.69z"/>
      <path d="M292.91 108.71c3.44-1.11 5.83-4.3 6.86-8.48-3.28-2.78-7.09-3.96-10.55-2.84-3.44 1.12-5.83 4.31-6.84 8.5 3.29 2.77 7.1 3.94 10.53 2.82zM336.38 101.7c1.47-3.3 4.9-5.35 9.18-5.93 2.4 3.56 3.19 7.47 1.71 10.78-1.47 3.3-4.89 5.34-9.17 5.92-2.4-3.55-3.2-7.46-1.72-10.77z"/>
      <path d="M329.63 119.35c3.62-.38 6.62-3 8.47-6.88-2.62-3.4-6.1-5.35-9.71-4.96-3.6.37-6.6 3-8.47 6.87 2.64 3.4 6.12 5.34 9.71 4.97zM223.22 90.05c-.75-3.53-3.67-6.24-7.72-7.7-3.11 2.98-4.68 6.64-3.93 10.18.75 3.54 3.68 6.25 7.73 7.7 3.1-2.97 4.68-6.64 3.92-10.18zM216.45 110.77c2.7-2.42 3.58-6.3 2.81-10.54-4.13-1.2-8.09-.73-10.78 1.7-2.69 2.41-3.57 6.3-2.8 10.53 4.13 1.2 8.08.73 10.77-1.69z"/>
      <path d="M226.12 108.71c-3.44-1.11-5.83-4.3-6.86-8.48 3.3-2.78 7.1-3.96 10.54-2.84 3.45 1.12 5.84 4.31 6.86 8.5-3.29 2.77-7.1 3.94-10.54 2.82zM182.65 101.7c-1.47-3.3-4.9-5.35-9.16-5.93-2.42 3.56-3.2 7.47-1.72 10.78 1.47 3.3 4.9 5.34 9.16 5.92 2.42-3.55 3.2-7.46 1.72-10.77z"/>
      <path d="M189.4 119.35c-3.6-.38-6.6-3-8.48-6.88 2.64-3.4 6.12-5.35 9.72-4.96 3.6.37 6.6 3 8.47 6.87-2.63 3.4-6.12 5.34-9.71 4.97zM250 9.77a9.77 9.77 0 1119.54 0 9.77 9.77 0 01-19.53 0zM189.35 131.1l8 12.15c18.26-8.38 39.78-13.95 62.32-13.95 22.79 0 44.2 5.57 62.45 13.95l8.01-12.15c-20.51-9.8-44.57-15.65-70.27-15.65-25.66 0-49.79 5.7-70.51 15.65zM202.11 55.17a29.47 29.47 0 00-8.61-1.25c-12.73 0-23.04 7.75-23.04 17.33 0 4.47 2.26 8.55 5.97 11.63l-10.17 10.17c-6.33-5.69-10.21-13.35-10.21-21.78 0-17.55 16.77-31.76 37.47-31.76 5.43 0 10.58.98 15.24 2.74 6.81-7.85 17.8-12.94 30.18-12.94a42.2 42.2 0 0120.74 5.3 42.23 42.23 0 0120.73-5.3c12.39 0 23.38 5.1 30.18 12.94a43.04 43.04 0 0115.26-2.74c20.68 0 37.46 14.21 37.46 31.76 0 8.43-3.88 16.1-10.2 21.78l-10.17-10.17c3.7-3.08 5.96-7.16 5.96-11.63 0-9.58-10.32-17.33-23.03-17.33-3.06 0-5.97.44-8.62 1.25.42 1.92.65 3.88.65 5.9 0 6.31-2.16 12.2-5.91 17.15l-10.36-10.36a13.71 13.71 0 001.85-6.81c0-9.57-10.32-17.33-23.05-17.33a28.4 28.4 0 00-13.24 3.15v20.89h-14.4V47.2a28.2 28.2 0 00-13.87-3.49c-12.73 0-23.04 7.76-23.04 17.33 0 2.42.66 4.72 1.85 6.8l-10.37 10.37a28.23 28.23 0 01-5.89-17.15c0-2.02.22-3.98.64-5.9zM49.03 384.19l3.35-3.35h204.05V176.87l3.34-3.35 3.28 3.29v204.03H467.16l3.31 3.21-3.42 3.4h-204v203.96l-3.31 3.3-3.32-3.3V387.45H52.32l-3.28-3.26zM250.39 634.43a9.33 9.33 0 019.35-9.32 9.33 9.33 0 110 18.67 9.35 9.35 0 01-9.35-9.35zM0 384.19a9.35 9.35 0 1118.7 0 9.35 9.35 0 01-18.7 0zM500.65 384.19a9.35 9.35 0 1118.7 0 9.35 9.35 0 01-18.7 0z"/>
      <path d="M210.59 545.67V387.45h22.91v181.12l-22.91-22.9z"/>
      <path d="M164.74 499.85v-112.4h22.92v135.3l-22.92-22.9z"/>
      <path d="M118.9 454.01v-66.56h22.93v89.48l-22.93-22.92z"/>
      <path d="M73.07 408.2v-20.75h22.91v43.66L73.07 408.2z"/>
      <path d="M308.9 222.63v158.21h-22.92V199.72l22.91 22.9z"/>
      <path d="M354.73 268.45v112.39H331.8v-135.3l22.92 22.91z"/>
      <path d="M400.57 314.27v66.57h-22.92v-89.48l22.92 22.9z"/>
      <path d="M446.4 360.08v20.76H423.5v-43.66l22.91 22.9z"/>
      <path d="M210.6 380.84h-22.94v-57h-78.3l22.93-22.91h55.37v-55.5l22.93-22.89v78.39h45.84v22.91h-45.84v57zM308.9 387.45h22.91v57h78.3l-22.92 22.92H331.8v55.34l-22.92 23.03v-78.37h-45.84v-22.92h45.84v-57z"/>
      <path d="M489.16 384.07s-25.34 45.4-103.52 123.58C306.46 586.78 259.7 613.46 259.7 613.46s-45.42-25.32-123.6-103.48C56.91 430.82 30.22 384.09 30.22 384.09s25.35-45.4 103.54-123.56c79.18-79.15 125.93-105.72 125.93-105.72s45.4 25.23 123.6 103.4c79.18 79.14 105.86 125.86 105.86 125.86zm-229.45 226.1l226.16-226.1L259.7 158.02 33.52 384.09l226.19 226.09z"/>
      <path fill="none" stroke="#000" stroke-miterlimit="3.86" stroke-width=".14" d="M489.16 384.07s-25.34 45.4-103.52 123.58C306.46 586.78 259.7 613.46 259.7 613.46s-45.42-25.32-123.6-103.48C56.91 430.82 30.22 384.09 30.22 384.09s25.35-45.4 103.54-123.56c79.18-79.15 125.93-105.72 125.93-105.72s45.4 25.23 123.6 103.4c79.18 79.14 105.86 125.86 105.86 125.86zm-229.45 226.1l226.16-226.1L259.7 158.02 33.52 384.09l226.19 226.09z"/>
    </g>
  </switch>
</svg>
