<?xml version="1.0" encoding="utf-8"?>
<!-- Generator: Adobe Illustrator 21.0.0, SVG Export Plug-In . SVG Version: 6.00 Build 0)  -->
<svg version="1.1" id="Capa_1" xmlns="http://www.w3.org/2000/svg" xmlns:xlink="http://www.w3.org/1999/xlink" x="0px" y="0px"
	 viewBox="0 0 116.3 27.8" style="enable-background:new 0 0 116.3 27.8;" xml:space="preserve">
<style type="text/css">
	.st0{fill:#213361;}
	.st1{fill:#07A2DE;}
</style>
<g>
	<path class="st0" d="M84.5,21.1h-2.6v-1.7c-1.9,1.6-4.1,2.2-6.4,1.7c-2.5-0.5-4.1-2.3-4-4.6c0.1-2.2,1.7-3.8,4.2-4.1
		c1-0.1,2-0.1,3-0.1c1,0,2,0,3,0c0.4-1.2,0.2-2.4-0.8-3.1c-2.5-1.8-5-0.6-7.3,0.6l-1.1-1.7c2.6-1.9,5.4-2.4,8.4-1.7
		c2.2,0.5,3.5,2.1,3.6,4.4C84.5,14.3,84.5,17.6,84.5,21.1z M81.7,14.4c-2,0-3.9-0.1-5.8,0.2c-0.9,0.2-1.7,0.6-1.8,1.7
		c-0.1,1,0.2,1.9,1.1,2.4c1.7,0.8,3.4,0.6,4.9-0.3C81.5,17.5,82.1,16.2,81.7,14.4z"/>
	<path class="st0" d="M50.4,6.2c4.5,0,7.6,3.1,7.6,7.5c0,4.5-3.2,7.6-7.7,7.6c-4.5-0.1-7.6-3.1-7.6-7.5C42.7,9.3,45.9,6.2,50.4,6.2z
		 M50.4,8.5c-3,0-5,2.2-5,5.3c0,3.1,2.1,5.2,5.1,5.2c2.9,0,4.9-2.2,4.9-5.2C55.4,10.7,53.3,8.5,50.4,8.5z"/>
	<path class="st0" d="M57.4,6.3h2.8c1.2,3.1,3.3,8.3,4.7,11.8c1.6-4.2,3-8,4.5-11.8c0.9,0,1.7,0,2.7,0c-1.6,3.9-6.2,15.7-7.1,17.6
		c-1.5,3.1-4.8,3.7-7.4,1.6l0.9-1.8c2.1,1.2,3.2,0.5,3.9-0.4c0.7-1,1.5-1.9,0.9-3.3C61.4,15.9,57.6,6.8,57.4,6.3z"/>
	<path class="st1" d="M21.7,11.7c0.9-1.3,3.7-5.3,3.7-5.3h3c-1.7,2.5-3.3,4.8-4.9,7.1c1.7,2.5,3.4,4.9,5.2,7.5h-3l-4-5.6l-4,5.6h-3
		c1.8-2.5,3.5-5,5.2-7.5c-1.6-2.4-3.2-4.7-4.9-7.1h3C18.1,6.4,20.8,10.4,21.7,11.7z"/>
	<path class="st1" d="M13.8,17.2c0.4,0.4,0.8,0.9,1.3,1.4c-2.2,3.1-7.7,3.6-10.8,1.1C1,17,0.7,11.4,3.6,8.4c2.8-3,8.5-2.9,11.3,0.2
		c-0.4,0.5-0.8,1.1-1.3,1.7c-1.7-1.4-3.6-2-5.7-1.5c-1.1,0.2-2,0.8-2.7,1.8c-1.5,2-1.3,5.3,0.4,7C7.6,19.5,10.5,19.5,13.8,17.2z"/>
	<path class="st0" d="M92.7,8.9h-2.2V6.6h2.2V2.9l2.6,0c0,1.3,0,2.5,0,3.8c0,0,4.5,0,4.5,0c0,0.6,0,1.5,0,2.3c-1.5,0-2.9,0-4.4,0
		c0,2.9,0,5.5,0,8.2c0,1.3,1.6,2.4,3.9,1.2c1.1,1.9,1.1,1.9,1.1,1.9c-4.4,2.7-7.7,0.1-7.7-3.3C92.6,14.3,92.7,11.7,92.7,8.9z"/>
	<path class="st0" d="M34.6,18.7c3,0,5.7,0,8.6,0c0,0.8,0,1.5,0,2.3c-3.7,0-7.4,0-11.1,0c0-6.4,0-12.9,0-19.5c0.8,0,1.6,0,2.6,0
		C34.6,7.2,34.6,12.9,34.6,18.7z"/>
	<path class="st0" d="M86.6,0.4c0.9,0,1.7,0,2.5,0c0,6.9,0,13.8,0,20.7h-2.5C86.6,14.2,86.6,7.4,86.6,0.4z"/>
</g>
<path class="st0" d="M100.1,6.3h2.8c1.2,3.1,3.3,8.3,4.7,11.8c1.6-4.2,3-8,4.5-11.8c0.9,0,1.7,0,2.7,0c-1.6,3.9-6.2,15.7-7.1,17.6
	c-1.5,3.1-4.8,3.7-7.4,1.6l0.9-1.8c2.1,1.2,3.2,0.5,3.9-0.4c0.7-1,1.5-1.9,0.9-3.3C104,15.9,100.3,6.8,100.1,6.3z"/>
</svg>
