<svg xmlns="http://www.w3.org/2000/svg" xmlns:xlink="http://www.w3.org/1999/xlink" viewBox="-.4 -.7 86 19">
  <path fill="#004186" d="M21.3 10.6h1l3.4 7.1 3.6-.6-4-7.3c1.6-1 2.8-2.4 2.8-5C28.1 2 26 .5 22.8.5H17v17h3.4V2.8H22c1.3 0 2.7.7 2.7 2.6 0 1.2-.8 3-3 3h-.5v2.3zM14.3 9.6v7c-1.7.7-3.5 1.1-5.3 1.1-5.5 0-9-3.9-9-9C0 4.2 3.4 0 9 0c1.8 0 3.5.6 4.6 1.3l-1 2c-1-.4-2.2-.9-3.5-.9-3.4 0-5.7 2.5-5.7 6.4 0 4 2.7 6.5 5.4 6.5a5 5 0 002.3-.4V9.6h3.2zM31.1.5h3.3v16.8h-3.3zM46.6 2.6h-5.4v5.5h3.9v2.2h-3.9v7h-3.3V.5h8.7zM47.4 8.6c0-4.8 3.3-8.6 7.9-8.6 4.5 0 7.9 3.8 7.9 8.6 0 5.1-3 9.1-8 9.1-4.8 0-7.8-4-7.8-9m12.4 0c0-3.2-1.4-6.5-4.5-6.5-3.2 0-4.5 3.3-4.5 6.4 0 3.3 1.1 6.9 4.5 6.9 3.3 0 4.5-3.6 4.5-6.9M65.5.5h3.3v14.2h4.3v2.6h-7.6zM83.4 3.4c-.7-.5-1.6-1-2.6-1-1.3 0-2 .8-2 1.8 0 1.1 1 2 3 3.5C83.9 9.5 85 11 85 13c0 2.1-1.9 4.5-5.5 4.5-1.6 0-3.5-.5-4.7-1.6l1.2-2c.8.7 1.8 1.4 3.2 1.4 1.4 0 2.5-.8 2.5-2.3 0-1.9-2.1-3.1-3.4-4.2-1.5-1.3-2.8-2.3-2.8-4.5 0-2.3 2.1-4.1 5-4.1 1.8 0 3.3.7 4 1.4l-1 1.8z"/>
</svg>
